<?xml version="1.0" encoding="UTF-8"?>
<svg width="7px" height="13px" viewBox="0 0 7 13" version="1.1" xmlns="http://www.w3.org/2000/svg" xmlns:xlink="http://www.w3.org/1999/xlink">
    <title>fanhui</title>
    <g id="页面-1" stroke="none" stroke-width="1" fill="none" fill-rule="evenodd">
        <g id="ft转账记录‘" transform="translate(-352.000000, -86.000000)" fill="#B5B5B5" fill-rule="nonzero">
            <g id="fanhui" transform="translate(355.500000, 92.103125) scale(-1, -1) translate(-355.500000, -92.103125) translate(352.000000, 86.000000)">
                <path d="M6.7375,1.334375 L1.8375,6.146875 L6.7375,10.959375 C7,11.221875 7,11.746875 6.7375,12.009375 C6.475,12.271875 5.95,12.271875 5.6875,12.009375 L0.35,6.759375 C0.35,6.759375 0.2625,6.759375 0.2625,6.671875 C0.0875,6.584375 0,6.321875 0,6.146875 C0,5.971875 0.0875,5.709375 0.2625,5.621875 C0.2625,5.621875 0.35,5.621875 0.35,5.534375 L5.6875,0.196875 C5.95,-0.065625 6.475,-0.065625 6.7375,0.196875 C7.0875,0.546875 7.0875,0.984375 6.7375,1.334375 Z" id="路径"></path>
            </g>
        </g>
    </g>
</svg>